<?xml version="1.0"?>
<svg xmlns="http://www.w3.org/2000/svg" xmlns:xlink="http://www.w3.org/1999/xlink" version="1.1" id="Layer_1" x="0px" y="0px" viewBox="0 0 504 504" style="enable-background:new 0 0 504 504;" xml:space="preserve" width="512px" height="512px" class=""><g><circle style="fill:#374957" cx="252" cy="252" r="252" data-original="#FFD05B" class="" data-old_color="#FFD05B"/><rect x="94.5" y="94.5" style="fill:#54C0EB" width="315" height="315" data-original="#54C0EB" class="active-path"/><rect x="122.1" y="160.7" style="fill:#FFFFFF;" width="259.9" height="221.2" data-original="#FFFFFF" class=""/><rect x="122.1" y="118" style="fill:#F1543F;" width="32.5" height="19.2" data-original="#F1543F" class=""/><rect x="175.7" y="118" style="fill:#FFFFFF;" width="32.5" height="19.2" data-original="#FFFFFF" class=""/><rect x="229.4" y="118" style="fill:#2B3B4E;" width="32.5" height="19.2" data-original="#2B3B4E" class=""/><circle style="fill:#324A5E" cx="252" cy="271.3" r="80.9" data-original="#324A5E" class="" data-old_color="#324A5E"/><g>
	<polygon style="fill:#FFFFFF;" points="215.2,304.8 180.2,271.3 215.2,237.9 225.6,248.8 202,271.3 225.6,293.9  " data-original="#FFFFFF" class=""/>
	<polygon style="fill:#FFFFFF;" points="288.8,304.8 278.4,293.9 302,271.3 278.4,248.8 288.8,237.9 323.8,271.3  " data-original="#FFFFFF" class=""/>
	
		<rect x="244.499" y="213.507" transform="matrix(-0.9299 -0.3678 0.3678 -0.9299 386.5471 616.2808)" style="fill:#FFFFFF;" width="15" height="115.599" data-original="#FFFFFF" class=""/>
</g></g> </svg>
